<?xml version="1.0" encoding="utf-8"?>
<!-- Generator: Adobe Illustrator 27.7.0, SVG Export Plug-In . SVG Version: 6.00 Build 0)  -->
<svg version="1.1" id="Layer_1" xmlns="http://www.w3.org/2000/svg" xmlns:xlink="http://www.w3.org/1999/xlink" x="0px" y="0px"
	 viewBox="0 0 144 56" style="enable-background:new 0 0 144 56;" xml:space="preserve">
<style type="text/css">
	.st0{fill:#464545;}
</style>
<g>
	<g>
		<path class="st0" d="M9,45.8h5.4v5.9c-0.7,0.7-1.5,1.2-2.3,1.5s-1.7,0.5-2.7,0.5c-1.1,0-2-0.2-2.9-0.6c-0.9-0.4-1.6-0.9-2.2-1.6
			c-0.6-0.6-1.1-1.4-1.4-2.2c-0.3-0.8-0.5-1.7-0.5-2.6c0-1.1,0.2-2,0.6-2.9c0.4-0.9,0.9-1.6,1.6-2.2c0.6-0.6,1.4-1.1,2.2-1.4
			c0.8-0.3,1.7-0.5,2.6-0.5c0.9,0,1.8,0.2,2.7,0.6c0.9,0.4,1.7,0.9,2.4,1.7l-1.9,2c-0.5-0.5-1-0.8-1.6-1.1c-0.6-0.3-1.1-0.4-1.7-0.4
			c-0.6,0-1.1,0.1-1.7,0.3c-0.5,0.2-1,0.5-1.4,0.9C6,44.1,5.7,44.5,5.4,45c-0.2,0.5-0.3,1.1-0.3,1.7c0,0.6,0.1,1.1,0.3,1.7
			c0.2,0.5,0.5,1,0.9,1.4c0.4,0.4,0.8,0.7,1.4,0.9C8.2,50.9,8.8,51,9.4,51c0.4,0,0.8-0.1,1.2-0.2c0.4-0.1,0.8-0.3,1.1-0.5v-1.8H9
			V45.8z"/>
		<path class="st0" d="M23.6,39.7l6.2,13.9h-3l-1.1-2.5h-5.3c-0.2,0.4-0.4,0.8-0.6,1.3c-0.2,0.5-0.4,0.9-0.5,1.2h-3l6.1-13.9H23.6z
			 M24.4,48.3L23,45.1l-1.4,3.2H24.4z"/>
		<path class="st0" d="M47.7,39.7v13.9H45v-8.9l-5,4.9l-4.9-4.9v8.9h-2.7V39.7h1.5l6.2,6.1l6.2-6.1H47.7z"/>
		<path class="st0" d="M54.8,42.5v2.8h4.5v2.8h-4.5v2.8h6.1v2.7H52V39.8h8.9v2.7H54.8z"/>
		<path class="st0" d="M72.5,53.7c-0.6,0-1.2-0.1-1.8-0.3c-0.6-0.2-1.1-0.4-1.6-0.7h0c-0.4-0.2-0.7-0.5-0.9-0.7
			c-0.3-0.3-0.5-0.5-0.6-0.6l2-1.9c0.1,0.1,0.2,0.3,0.4,0.4c0.2,0.2,0.4,0.3,0.7,0.5c0.3,0.2,0.5,0.3,0.8,0.4
			c0.3,0.1,0.6,0.2,0.8,0.2c0.2,0,0.4,0,0.7-0.1c0.2-0.1,0.4-0.1,0.6-0.2c0.2-0.1,0.3-0.3,0.5-0.4c0.1-0.2,0.2-0.4,0.2-0.7
			c0-0.1,0-0.2-0.1-0.3c-0.1-0.1-0.2-0.3-0.4-0.4c-0.2-0.1-0.4-0.3-0.7-0.5c-0.3-0.2-0.7-0.3-1.2-0.5c-0.6-0.2-1.1-0.4-1.5-0.7
			c-0.5-0.2-0.9-0.5-1.2-0.9c-0.3-0.3-0.6-0.7-0.8-1.1s-0.3-0.9-0.3-1.5c0-0.6,0.1-1.1,0.3-1.6c0.2-0.5,0.5-0.9,0.9-1.3
			c0.4-0.4,0.9-0.6,1.4-0.8c0.5-0.2,1.1-0.3,1.8-0.3c0.4,0,0.7,0,1.1,0.1c0.4,0.1,0.8,0.2,1.2,0.4c0.4,0.1,0.7,0.3,1.1,0.5
			c0.3,0.2,0.6,0.4,0.8,0.6L75,43.4c-0.2-0.2-0.5-0.3-0.8-0.5c-0.2-0.1-0.5-0.2-0.8-0.3c-0.3-0.1-0.6-0.2-0.9-0.2
			c-0.6,0-1,0.1-1.3,0.3c-0.3,0.2-0.5,0.5-0.5,0.9c0,0.2,0.1,0.4,0.2,0.5c0.1,0.2,0.3,0.3,0.5,0.4c0.2,0.1,0.4,0.2,0.7,0.3
			c0.2,0.1,0.5,0.2,0.8,0.3c0.8,0.3,1.4,0.6,2,0.9c0.5,0.3,1,0.6,1.3,1c0.3,0.3,0.6,0.7,0.7,1.1c0.1,0.4,0.2,0.8,0.2,1.3
			c0,0.6-0.1,1.1-0.4,1.6c-0.2,0.5-0.6,1-1,1.3c-0.4,0.4-0.9,0.7-1.5,0.9C73.8,53.6,73.1,53.7,72.5,53.7z"/>
		<path class="st0" d="M89.2,42.5h-3.8v11h-2.7v-11h-3.8v-2.7h10.3V42.5z"/>
		<path class="st0" d="M97.5,53.7c-0.8,0-1.5-0.1-2.2-0.4c-0.7-0.3-1.2-0.6-1.7-1.1c-0.5-0.5-0.8-1-1.1-1.7
			c-0.3-0.7-0.4-1.4-0.4-2.2v-8.5h2.7V48c0,0.5,0.1,0.9,0.2,1.2c0.1,0.4,0.3,0.7,0.6,0.9c0.2,0.3,0.5,0.5,0.8,0.6
			c0.3,0.1,0.6,0.2,1,0.2c0.3,0,0.7-0.1,1-0.2c0.3-0.1,0.6-0.3,0.8-0.6c0.2-0.3,0.4-0.6,0.6-0.9c0.1-0.4,0.2-0.8,0.2-1.2v-8.2h2.7
			v8.5c0,0.8-0.1,1.5-0.4,2.2c-0.3,0.7-0.6,1.2-1.1,1.7c-0.5,0.5-1,0.8-1.7,1.1C99,53.6,98.3,53.7,97.5,53.7z"/>
		<path class="st0" d="M106.8,53.6V39.8h4.8c1,0,1.9,0.2,2.8,0.5c0.8,0.3,1.5,0.8,2.1,1.4c0.6,0.6,1,1.3,1.3,2.2
			c0.3,0.8,0.5,1.8,0.5,2.8c0,1-0.2,1.9-0.5,2.7c-0.3,0.8-0.8,1.6-1.3,2.2c-0.6,0.6-1.3,1.1-2.1,1.5s-1.7,0.5-2.8,0.5H106.8z
			 M109.5,50.8h2.1c0.6,0,1.1-0.1,1.6-0.3c0.5-0.2,0.9-0.5,1.2-0.9s0.6-0.8,0.8-1.3c0.2-0.5,0.3-1,0.3-1.6c0-0.6-0.1-1.1-0.3-1.6
			c-0.2-0.5-0.5-0.9-0.8-1.3c-0.4-0.4-0.8-0.7-1.2-0.9c-0.5-0.2-1-0.3-1.6-0.3h-2.1V50.8z"/>
		<path class="st0" d="M121.6,53.6V39.8h2.7v13.8H121.6z"/>
		<path class="st0" d="M134.3,53.7c-0.9,0-1.7-0.2-2.5-0.5c-0.8-0.3-1.6-0.8-2.2-1.4c-0.6-0.6-1.2-1.3-1.6-2.2
			c-0.4-0.8-0.6-1.8-0.6-2.8c0-0.9,0.2-1.8,0.5-2.6c0.3-0.8,0.8-1.6,1.4-2.2c0.6-0.6,1.3-1.1,2.2-1.5c0.8-0.4,1.8-0.6,2.8-0.6
			c0.9,0,1.7,0.2,2.6,0.5c0.8,0.3,1.6,0.8,2.2,1.4c0.6,0.6,1.1,1.3,1.5,2.2c0.4,0.8,0.6,1.8,0.6,2.8c0,0.9-0.2,1.8-0.5,2.6
			c-0.3,0.8-0.8,1.6-1.4,2.2c-0.6,0.6-1.3,1.2-2.2,1.5C136.2,53.5,135.3,53.7,134.3,53.7z M134.3,42.6c-0.6,0-1.1,0.1-1.7,0.3
			c-0.5,0.2-1,0.5-1.3,0.9c-0.4,0.4-0.7,0.8-0.9,1.3c-0.2,0.5-0.3,1.1-0.3,1.6s0.1,1.1,0.3,1.6c0.2,0.5,0.5,1,0.9,1.3
			c0.4,0.4,0.8,0.7,1.3,0.9c0.5,0.2,1.1,0.3,1.6,0.3c0.6,0,1.1-0.1,1.6-0.3c0.5-0.2,0.9-0.5,1.3-0.9c0.4-0.4,0.7-0.8,0.9-1.3
			c0.2-0.5,0.3-1,0.3-1.6s-0.1-1.1-0.3-1.6c-0.2-0.5-0.5-1-0.9-1.3c-0.4-0.4-0.8-0.7-1.3-0.9C135.4,42.7,134.8,42.6,134.3,42.6z"/>
	</g>
	<g>
		<path class="st0" d="M42.3,12.1v1.1c0,1.2-0.7,1.8-2,1.8c-4.1,0.1-4.3,0.4-4.3,1.9v11c0,1.2-0.6,1.8-1.8,1.8h-1.9
			c-1.2,0-1.8-0.6-1.8-1.8V16.1c0-4.5,1.6-5.7,9.9-5.8C41.7,10.3,42.3,10.9,42.3,12.1"/>
		<path class="st0" d="M62.7,17.6v6.5c0,4.1-1.9,5.6-6.1,5.6h-4.4c-4.8,0-7.7-1.3-7.7-5.9c0-4.6,2.9-5.9,7.7-5.9h5.1v-0.3
			c0-2.2-1.7-3.1-4.6-3.1c-1.4,0-3.2,0.2-5.1,0.6c-1.2,0.2-2-0.3-2-1.6v-0.7c0-1.1,0.6-1.8,1.9-2c2.1-0.5,4.2-0.7,5.9-0.7
			C58.8,10.1,62.7,12.3,62.7,17.6 M57.2,23.8v-2h-4.8c-2.4,0-2.9,0.5-2.9,2c0,1.4,0.5,2,2.8,2h2.9C57,25.8,57.2,25.1,57.2,23.8"/>
		<path class="st0" d="M85.9,20.1c0,7.5-4.1,10-11,10c-0.9,0-1.8,0-2.7-0.1v5.8c0,1.2-0.6,1.8-1.8,1.8h-1.8c-1.2,0-1.8-0.6-1.8-1.8
			V16.2c0-4.4,2.4-6.2,8.2-6.2C81.8,10.1,85.9,12.6,85.9,20.1 M80.4,20.1c0-4.1-1.5-5.4-5.1-5.4c-2.8,0-3.1,0.8-3.1,2.6v8
			c1.2,0.1,2.2,0.2,3.1,0.2C78.9,25.5,80.4,24.1,80.4,20.1"/>
		<path class="st0" d="M108.7,20.1v7.8c0,1.2-0.6,1.8-1.8,1.8H105c-1.2,0-1.8-0.6-1.8-1.8v-7.8c0-4.2-1.5-5.4-5.3-5.4
			c-0.8,0-1.8,0.1-2.9,0.1v13.1c0,1.2-0.6,1.8-1.8,1.8h-1.8c-1.2,0-1.8-0.6-1.8-1.8V4.1c0-1.2,0.6-1.8,1.8-1.8h1.8
			c1.2,0,1.8,0.6,1.8,1.8v6.1c0.9-0.1,1.9-0.1,2.7-0.1C104.6,10.1,108.7,12.6,108.7,20.1"/>
		<path class="st0" d="M113.2,27.9V12.2c0-1.2,0.6-1.8,1.8-1.8h1.9c1.2,0,1.8,0.6,1.8,1.8v15.7c0,1.2-0.6,1.8-1.8,1.8H115
			C113.9,29.7,113.2,29.1,113.2,27.9"/>
		<path class="st0" d="M137,21.8l-8.3,0.9c0.7,2.2,2.5,3,5.1,3c1.3,0,2.8-0.2,4.5-0.6c1.3-0.3,2,0.3,2,1.5v0.6c0,1.1-0.5,1.7-1.5,2
			c-2.1,0.6-4.1,0.9-6,0.9c-5.9,0-9.9-3.2-9.9-10c0-6.4,3.4-10,10-10c5.5,0,8.8,2.6,8.8,7.5C141.6,20.3,140.5,21.5,137,21.8
			 M136.5,17.1c0-1.9-1.1-2.9-3.6-2.9c-2.7,0-4.2,1.2-4.5,4.5l6.8-0.7C136.3,17.9,136.5,17.7,136.5,17.1"/>
		<path class="st0" d="M21.9,29.2c4.2-1.7,5.3-6.4,4.5-10.6c-0.8-4.7-6.1-4.7-9.4-4.5c-3.2,0.1-3.8,1-3.7,3c0.2,2.3,1.8,2,4.4,1.9
			c2.6,0,3.7,0.1,3.9,1.3c0.5,3.6-1,6-8.5,5c-4.7-0.6-7-7.2-4.6-12.5c0.1-0.3,0.3-0.5,0.4-0.8c1.3-1.8,2.3-2.8,5.3-3.3
			c1.7-0.2,5.4-0.2,7.7-0.1c2.5,0.1,2.7-2.6,2.5-4.1c-0.3-1.7-2.9-1.8-3.1-1.8c-9.1-0.4-14.6,0.8-17,5.3c-2.9,5.5-2.8,13.3,0.8,18.1
			C8.8,31.1,17.9,30.7,21.9,29.2"/>
	</g>
</g>
</svg>
